<svg width="46" height="41" viewBox="0 0 46 41" fill="none" xmlns="http://www.w3.org/2000/svg">
<path fill-rule="evenodd" clip-rule="evenodd" d="M3.17922 0.187574C2.13339 0.440659 1.34986 1.04245 0.855499 1.97231L0.580078 2.49028V20.0612V37.6321L0.855499 38.15C1.2037 38.805 1.62123 39.236 2.22212 39.5611C2.74027 39.8414 3.55843 40.0625 4.07737 40.0625C4.51932 40.0625 4.9276 39.7371 4.99958 39.3276C5.04584 39.0643 5.01668 38.9991 4.74108 38.7498C4.53139 38.5602 4.34865 38.4686 4.17923 38.4683C3.46142 38.467 2.75631 38.0584 2.46247 37.4734C2.30908 37.168 2.30194 36.4878 2.30009 22.0733L2.29815 6.99257H23.0913H43.8844V22.0776V37.1625L43.6556 37.5777C43.4857 37.886 43.3212 38.0491 43.0168 38.211L42.6068 38.4289L27.0264 38.4688L11.446 38.5086L11.2333 38.7322C10.8429 39.1427 10.9906 39.7737 11.5238 39.9731C11.707 40.0415 15.7286 40.0596 27.3204 40.0439L42.8712 40.0227L43.3557 39.8422C44.0712 39.5759 44.6439 39.1585 45.0239 38.6266C45.7071 37.6706 45.6574 39.2142 45.6284 19.8221L45.6025 2.49028L45.327 1.97231C44.9788 1.31737 44.5613 0.886346 43.9604 0.561225C42.967 0.0238981 44.459 0.0592789 23.0507 0.065096C6.27563 0.0696382 3.59852 0.0861333 3.17922 0.187574ZM42.7831 1.80465C42.9769 1.88577 43.2424 2.05535 43.3731 2.18141C43.8107 2.60351 43.8844 2.89445 43.8844 4.20099V5.39884H23.0913H2.29815L2.30009 4.18362C2.30168 3.17056 2.32934 2.91397 2.46626 2.64128C2.66732 2.24086 2.93675 1.99949 3.39948 1.80513C3.73957 1.66225 4.43077 1.65707 23.0913 1.65707C41.7297 1.65707 42.4434 1.66241 42.7831 1.80465ZM5.06364 2.68487C4.79923 2.78584 4.50081 3.15518 4.50081 3.38157C4.50081 4.37566 6.08849 4.50013 6.23422 3.51744C6.27607 3.23583 6.24761 3.15534 6.03061 2.93963C5.76153 2.67236 5.36805 2.56869 5.06364 2.68487ZM8.28939 2.66312C7.60022 2.9064 7.49529 3.79507 8.12119 4.08775C8.72041 4.36801 9.31935 4.10218 9.40605 3.51744C9.4479 3.23583 9.41944 3.15534 9.20244 2.93963C8.95406 2.69292 8.55089 2.57084 8.28939 2.66312ZM11.4612 2.66312C10.7721 2.9064 10.6671 3.79507 11.293 4.08775C11.9077 4.37526 12.6066 4.03795 12.6066 3.45393C12.6066 2.9566 11.9378 2.4949 11.4612 2.66312ZM28.7578 8.54359C28.3778 8.69308 28.2443 8.96864 28.1208 9.85874C28.0633 10.2737 28.0083 10.617 27.9987 10.6215C27.989 10.626 27.7948 10.7263 27.5672 10.8441L27.1531 11.0586L26.2551 10.735C25.2794 10.3834 25.0093 10.3742 24.6991 10.6822C24.4028 10.9765 22.6507 13.8014 22.6507 13.9848C22.6507 14.3125 22.8609 14.5704 23.4492 14.965C24.2266 15.4862 24.255 15.5233 24.2641 16.0311L24.2721 16.4656L23.5739 16.9496C22.8384 17.4597 22.6589 17.6628 22.6538 17.9904C22.6507 18.1932 24.3693 20.9842 24.6993 21.3121C25.0136 21.6245 25.2945 21.6156 26.2671 21.2628L27.1592 20.939L27.5702 21.1518C27.7962 21.2687 27.989 21.3683 27.9987 21.3728C28.0083 21.3774 28.0633 21.7206 28.1208 22.1356C28.3159 23.5415 28.3658 23.5674 30.8887 23.5674C32.8187 23.5674 33.1989 23.5083 33.3944 23.1779C33.4478 23.0877 33.5479 22.6503 33.6168 22.2061C33.6858 21.7618 33.7543 21.3907 33.7691 21.3814C33.784 21.3721 33.9798 21.2695 34.2042 21.1534L34.6122 20.9421L35.5025 21.2676C36.4343 21.6083 36.6523 21.6213 36.9966 21.3571C37.0972 21.2798 37.6047 20.5532 38.1243 19.7424C39.3892 17.7689 39.3894 17.7757 38.052 16.8562L37.4526 16.444V16.0007V15.5572L38.0473 15.1467C39.389 14.2204 39.3888 14.2256 38.1193 12.2519C37.5977 11.4411 37.1321 10.7347 37.0845 10.6821C37.0369 10.6296 36.8636 10.5465 36.6995 10.4975C36.432 10.4177 36.3082 10.442 35.5095 10.7319L34.6181 11.0553L34.2071 10.8425C33.9811 10.7256 33.784 10.6222 33.7691 10.6129C33.7543 10.6036 33.6849 10.2271 33.615 9.77634C33.545 9.32555 33.4287 8.87516 33.3565 8.77548C33.2843 8.67579 33.0761 8.55674 32.8939 8.511C32.381 8.38222 29.1024 8.40796 28.7578 8.54359ZM17.2772 9.55784C16.9432 9.66956 16.7563 9.8577 16.6975 10.1415C16.6168 10.5304 16.844 10.8418 17.4523 11.176L17.9838 11.468L17.0353 11.8976C15.2282 12.7161 13.4904 14.0875 12.3519 15.5935C11.4432 16.7956 10.5802 18.5419 10.5802 19.1785C10.5802 19.7525 11.2215 20.0958 11.8104 19.8368C12.0789 19.7187 12.1533 19.612 12.4321 18.9456C12.9194 17.7807 13.0963 17.4597 13.7135 16.6213C14.6919 15.292 16.084 14.1526 17.631 13.4149C18.0533 13.2135 18.42 13.0487 18.4458 13.0487C18.4715 13.0487 18.3749 13.3021 18.2311 13.6117C17.9244 14.2719 17.9494 14.5371 18.3467 14.8395C18.8069 15.1898 19.4215 15.0408 19.6992 14.5117C20.2678 13.428 20.9767 11.8773 20.9767 11.7173C20.9767 11.3044 20.7388 11.1039 19.3621 10.3561C17.8815 9.55194 17.6079 9.44715 17.2772 9.55784ZM31.9937 10.7893C32.0684 11.1902 32.1851 11.5787 32.2529 11.6527C32.3209 11.7267 32.6364 11.9068 32.9541 12.0529C33.2719 12.1991 33.6684 12.4112 33.8353 12.5243C34.2403 12.7989 34.6373 12.7892 35.4258 12.4857C35.775 12.3513 36.0716 12.2527 36.0851 12.2665C36.0986 12.2804 36.3212 12.6298 36.5797 13.0429L37.0497 13.7941L36.6601 14.0789C36.4458 14.2354 36.14 14.4765 35.9805 14.6146L35.6905 14.8656V15.9972V17.1287L35.9805 17.3797C36.14 17.5178 36.4458 17.7589 36.6601 17.9154L37.0497 18.2002L36.5797 18.9514C36.3212 19.3645 36.0997 19.7129 36.0874 19.7257C36.0752 19.7384 35.7619 19.6398 35.391 19.5065C34.5603 19.2081 34.233 19.2004 33.8353 19.47C33.6684 19.5831 33.2651 19.7983 32.9391 19.9482C32.6131 20.0981 32.2884 20.3014 32.2178 20.3999C32.147 20.4985 32.041 20.8929 31.9822 21.2764L31.8752 21.9736H30.8753C30.3254 21.9736 29.8753 21.9468 29.8751 21.9139C29.8735 21.6288 29.5994 20.4233 29.5154 20.3317C29.4563 20.2674 29.1331 20.09 28.797 19.9374C28.4607 19.7848 28.0567 19.5709 27.8989 19.4622C27.5163 19.1982 27.1313 19.2085 26.3653 19.5034C26.0236 19.6348 25.7266 19.7424 25.7051 19.7424C25.6649 19.7424 24.7841 18.3662 24.7438 18.2406C24.7314 18.2018 25.0061 17.9678 25.3542 17.7206C25.7024 17.4734 26.0065 17.2086 26.0301 17.1322C26.1029 16.8963 26.0727 14.929 25.9943 14.7952C25.9535 14.7258 25.6411 14.4771 25.2999 14.2425L24.6796 13.8161L24.8875 13.4921C25.0018 13.314 25.2231 12.9621 25.3792 12.7101C25.5354 12.4581 25.6738 12.2519 25.6867 12.2519C25.6997 12.2519 25.9987 12.3595 26.3512 12.4909C27.1729 12.7974 27.4902 12.7965 27.9887 12.4863C28.2041 12.3523 28.6109 12.1391 28.8927 12.0127C29.1746 11.8861 29.454 11.7294 29.5139 11.6643C29.5994 11.571 29.8736 10.3672 29.8751 10.0778C29.8753 10.0435 30.3215 10.0256 30.8667 10.038L31.8579 10.0605L31.9937 10.7893ZM29.6922 13.3151C29.0079 13.5697 28.577 13.8886 28.1944 14.4234C27.3729 15.5718 27.5443 17.0803 28.6051 18.0398C28.9851 18.3836 29.621 18.7174 30.0913 18.8201C30.6055 18.9324 31.507 18.878 32.0224 18.7035C32.7261 18.4654 33.4754 17.822 33.8022 17.1751C34.0174 16.7491 34.0551 16.5735 34.0551 15.9972C34.0551 15.4208 34.0174 15.2452 33.8022 14.8192C33.478 14.1773 32.7256 13.5287 32.0338 13.2946C31.3424 13.0606 30.3529 13.0693 29.6922 13.3151ZM31.5493 14.8416C31.6897 14.9073 31.9151 15.092 32.0501 15.252C32.2521 15.4917 32.2955 15.6231 32.2955 15.9972C32.2955 16.3712 32.2521 16.5026 32.0501 16.7423C31.5062 17.3871 30.5556 17.4869 29.9337 16.9644C29.1888 16.3385 29.277 15.425 30.1329 14.9034C30.4864 14.6879 31.158 14.6586 31.5493 14.8416ZM14.7652 21.5474C11.2746 22.0556 8.50296 24.3218 7.65317 27.3623C7.3996 28.2694 7.37766 30.0744 7.60983 30.9174C8.15009 32.8789 9.4375 34.5526 11.2454 35.6437C12.6959 36.519 14.1054 36.901 15.9106 36.908C17.6163 36.9146 18.9121 36.5959 20.3957 35.8049C21.1356 35.4106 22.3499 34.3919 22.8773 33.7236C25.8307 29.9803 24.5465 24.7176 20.1352 22.4863C18.8365 21.8295 17.7864 21.5751 16.219 21.5374C15.5648 21.5218 14.9106 21.5263 14.7652 21.5474ZM17.8489 23.3278C19.0347 23.6658 19.8005 24.0905 20.7174 24.9186C21.4387 25.5701 21.618 25.7876 21.9684 26.4361C22.4461 27.3202 22.6415 27.9573 22.7106 28.8556C22.9163 31.5256 20.9857 34.1324 18.1585 35.002C15.6408 35.7766 13.0355 35.2161 11.1528 33.4952C9.72746 32.1923 9.08552 30.6718 9.19847 28.8665C9.37222 26.0903 11.5075 23.8465 14.589 23.2023C15.3748 23.038 17.06 23.1029 17.8489 23.3278ZM15.4661 25.038C15.3178 25.1721 15.2498 25.3224 15.2498 25.5161C15.2498 25.6979 15.208 25.7986 15.1327 25.7986C14.8576 25.7986 14.213 26.2892 13.9805 26.6756C13.621 27.2731 13.5849 27.8197 13.8683 28.3795C14.0611 28.7604 14.1819 28.8777 14.6725 29.1606L15.2498 29.4934V30.5945C15.2498 31.8118 15.2536 31.8053 14.6982 31.536C14.5173 31.4484 14.2503 31.3767 14.1048 31.3767C13.5672 31.3767 13.2822 31.9877 13.6603 32.3296C13.893 32.5402 14.4689 32.7992 14.8731 32.8752C15.1728 32.9315 15.2093 32.9666 15.2598 33.2478C15.3613 33.8128 15.9406 34.0262 16.3551 33.6513C16.5023 33.5182 16.5714 33.3668 16.5714 33.1769C16.5714 32.9247 16.6078 32.8836 16.9537 32.7452C17.7365 32.432 18.3192 31.6888 18.3971 30.9043C18.4884 29.9849 18.0406 29.2696 17.1212 28.8665L16.5759 28.6275L16.5736 27.8107C16.5724 27.3615 16.6012 26.995 16.6375 26.9965C16.6738 26.9978 16.7806 27.0516 16.8746 27.116C17.2325 27.3609 17.7132 27.2272 17.894 26.8325C17.9934 26.6153 17.9866 26.5594 17.8372 26.3712C17.7438 26.2535 17.4213 26.0496 17.1206 25.9181C16.6444 25.71 16.5736 25.6502 16.5725 25.4563C16.571 25.1742 16.2133 24.8424 15.9106 24.8424C15.785 24.8424 15.585 24.9304 15.4661 25.038ZM35.6024 24.8986C35.3049 24.997 35.0713 25.2906 34.8935 25.7893C34.0438 28.1728 32.007 30.3163 29.4792 31.4875C29.1444 31.6426 28.858 31.758 28.8425 31.744C28.8271 31.73 28.914 31.5251 29.0357 31.2886C29.1574 31.0522 29.2574 30.7215 29.2578 30.5537C29.2597 29.9096 28.422 29.5453 27.8976 29.9622C27.5823 30.213 26.3512 32.7318 26.3512 33.1263C26.3512 33.5342 26.5143 33.6644 28.1274 34.5444C29.6213 35.3595 29.8584 35.4181 30.2996 35.0823C30.87 34.6482 30.7132 34.109 29.8814 33.6445L29.3404 33.3426L30.3144 32.8846C32.7291 31.7489 34.7071 29.9281 35.9004 27.7427C36.3513 26.9169 36.7478 25.9509 36.7478 25.678C36.7478 25.1272 36.1472 24.7185 35.6024 24.8986ZM15.2498 27.6013C15.2498 27.9905 15.2324 28.0363 15.1176 27.9501C14.9646 27.8353 14.9499 27.6467 15.0714 27.3577C15.2026 27.0455 15.2498 27.11 15.2498 27.6013ZM16.9711 30.2668C17.1444 30.5699 17.1334 30.8845 16.9379 31.2143C16.6444 31.7093 16.5714 31.6164 16.5714 30.7483C16.5714 30.0605 16.5905 29.9539 16.7068 29.9943C16.7813 30.0202 16.9002 30.1427 16.9711 30.2668ZM7.40084 38.6907C7.15634 38.8882 7.10392 38.9875 7.10392 39.253C7.10392 39.8517 7.7774 40.2236 8.36419 39.9492C9.12578 39.593 8.9175 38.5988 8.05943 38.4947C7.7456 38.4567 7.65828 38.4826 7.40084 38.6907Z" fill="white"/>
</svg>
