<svg width="169" height="69" viewBox="0 0 169 69" fill="none" xmlns="http://www.w3.org/2000/svg">
<path d="M81.4626 44V28.49H84.3006V41.602H91.6046V44H81.4626ZM98.5937 44.22C96.731 44.22 95.2717 43.7067 94.2157 42.68C93.1597 41.6533 92.6317 40.2453 92.6317 38.456C92.6317 37.2973 92.859 36.2853 93.3137 35.42C93.7684 34.5547 94.399 33.88 95.2057 33.396C96.027 32.912 96.9804 32.67 98.0657 32.67C99.1364 32.67 100.031 32.8973 100.75 33.352C101.468 33.8067 102.011 34.4447 102.378 35.266C102.759 36.0873 102.95 37.048 102.95 38.148V38.874H94.8537V37.422H100.992L100.618 37.73C100.618 36.7033 100.398 35.9187 99.9577 35.376C99.5324 34.8333 98.909 34.562 98.0877 34.562C97.1784 34.562 96.4744 34.8847 95.9757 35.53C95.4917 36.1753 95.2497 37.0773 95.2497 38.236V38.522C95.2497 39.7247 95.543 40.6267 96.1297 41.228C96.731 41.8147 97.5744 42.108 98.6597 42.108C99.2904 42.108 99.877 42.0273 100.42 41.866C100.977 41.69 101.505 41.4113 102.004 41.03L102.818 42.878C102.29 43.3033 101.659 43.6333 100.926 43.868C100.192 44.1027 99.415 44.22 98.5937 44.22ZM108.143 44L103.347 32.89H106.273L109.749 41.58H109.067L112.631 32.89H115.381L110.563 44H108.143ZM116.633 44V32.89H119.383V44H116.633ZM116.479 30.8V28.116H119.537V30.8H116.479ZM126.902 44.22C125.582 44.22 124.584 43.8753 123.91 43.186C123.235 42.4967 122.898 41.4627 122.898 40.084V34.958H120.764V32.89H122.898V30.052L125.648 29.348V32.89H128.618V34.958H125.648V39.908C125.648 40.6707 125.794 41.206 126.088 41.514C126.381 41.822 126.784 41.976 127.298 41.976C127.576 41.976 127.811 41.954 128.002 41.91C128.207 41.866 128.405 41.8073 128.596 41.734V43.912C128.346 44.0147 128.068 44.088 127.76 44.132C127.466 44.1907 127.18 44.22 126.902 44.22ZM134.556 44.22C133.588 44.22 132.737 43.9927 132.004 43.538C131.27 43.0687 130.698 42.4013 130.288 41.536C129.877 40.6707 129.672 39.6367 129.672 38.434C129.672 37.2313 129.877 36.2047 130.288 35.354C130.698 34.4887 131.27 33.8287 132.004 33.374C132.737 32.9047 133.588 32.67 134.556 32.67C135.494 32.67 136.316 32.9047 137.02 33.374C137.738 33.8287 138.215 34.4447 138.45 35.222H138.208L138.45 32.89H141.09C141.046 33.3447 141.002 33.8067 140.958 34.276C140.928 34.7453 140.914 35.2073 140.914 35.662V44H138.186L138.164 41.712H138.428C138.193 42.4747 137.716 43.0833 136.998 43.538C136.279 43.9927 135.465 44.22 134.556 44.22ZM135.326 42.108C136.191 42.108 136.888 41.8073 137.416 41.206C137.944 40.59 138.208 39.666 138.208 38.434C138.208 37.202 137.944 36.2853 137.416 35.684C136.888 35.0827 136.191 34.782 135.326 34.782C134.46 34.782 133.764 35.0827 133.236 35.684C132.708 36.2853 132.444 37.202 132.444 38.434C132.444 39.666 132.7 40.59 133.214 41.206C133.742 41.8073 134.446 42.108 135.326 42.108ZM148.44 44.22C147.12 44.22 146.123 43.8753 145.448 43.186C144.774 42.4967 144.436 41.4627 144.436 40.084V34.958H142.302V32.89H144.436V30.052L147.186 29.348V32.89H150.156V34.958H147.186V39.908C147.186 40.6707 147.333 41.206 147.626 41.514C147.92 41.822 148.323 41.976 148.836 41.976C149.115 41.976 149.35 41.954 149.54 41.91C149.746 41.866 149.944 41.8073 150.134 41.734V43.912C149.885 44.0147 149.606 44.088 149.298 44.132C149.005 44.1907 148.719 44.22 148.44 44.22ZM157.065 44.22C155.202 44.22 153.743 43.7067 152.687 42.68C151.631 41.6533 151.103 40.2453 151.103 38.456C151.103 37.2973 151.33 36.2853 151.785 35.42C152.239 34.5547 152.87 33.88 153.677 33.396C154.498 32.912 155.451 32.67 156.537 32.67C157.607 32.67 158.502 32.8973 159.221 33.352C159.939 33.8067 160.482 34.4447 160.849 35.266C161.23 36.0873 161.421 37.048 161.421 38.148V38.874H153.325V37.422H159.463L159.089 37.73C159.089 36.7033 158.869 35.9187 158.429 35.376C158.003 34.8333 157.38 34.562 156.559 34.562C155.649 34.562 154.945 34.8847 154.447 35.53C153.963 36.1753 153.721 37.0773 153.721 38.236V38.522C153.721 39.7247 154.014 40.6267 154.601 41.228C155.202 41.8147 156.045 42.108 157.131 42.108C157.761 42.108 158.348 42.0273 158.891 41.866C159.448 41.69 159.976 41.4113 160.475 41.03L161.289 42.878C160.761 43.3033 160.13 43.6333 159.397 43.868C158.663 44.1027 157.886 44.22 157.065 44.22Z" fill="#030D6C"/>
<path d="M20.8441 0H35.5277L14.6837 34.5H0L20.8441 0Z" fill="#030D6C"/>
<path d="M32.8275 17.25H47.5111L26.6671 51.75H11.9834L32.8275 17.25Z" fill="#FFA012"/>
<path d="M45.3157 34.5H59.9994L39.1554 69H24.4717L45.3157 34.5Z" fill="#030D6C"/>
</svg>
