<svg width="51" height="50" viewBox="0 0 51 50" fill="none" xmlns="http://www.w3.org/2000/svg">
<path fill-rule="evenodd" clip-rule="evenodd" d="M19.1325 1.05594C17.3628 1.71848 17.3781 3.89594 19.1571 4.5376C19.4397 4.63962 19.9275 4.68382 20.7695 4.68382H21.9766V6.42451V8.1652L21.3475 8.22745C15.314 8.82405 9.44234 11.6107 5.64762 15.6786C2.95597 18.5638 1.31827 21.7041 0.566435 25.4216C0.289053 26.7926 0.289053 30.502 0.566435 31.9237C1.8436 38.4712 6.55407 44.0583 13.2832 47.0074C20.0226 49.9608 27.8608 50.0112 34.6148 47.1445C37.1562 46.0659 38.8435 45.0347 40.8406 43.3394C44.6036 40.1455 46.9489 36.1463 47.7503 31.5574C47.9703 30.2976 48.004 27.4011 47.8129 26.1732C47.2356 22.4644 45.6886 19.1714 43.162 16.2733C42.8242 15.8858 42.5478 15.5313 42.5478 15.4855C42.5478 15.4396 43.1607 14.8742 43.9099 14.2291L45.2718 13.0562L46.1612 13.7897C47.1263 14.5856 47.5521 14.7909 48.2377 14.7909C49.8456 14.7909 50.8979 13.36 50.2175 12.0988C50.0837 11.8512 48.8874 10.7569 46.7457 8.92304C43.6233 6.24948 43.4529 6.11998 42.9165 6.01173C41.5328 5.73241 40.2561 6.5798 40.2517 7.78038C40.2492 8.49401 40.4689 8.85919 41.3952 9.68089L42.2133 10.4066L40.8089 11.6164L39.4045 12.8261L38.3725 12.1652C35.5417 10.3524 32.325 9.10629 28.9796 8.52651C28.2273 8.39615 27.3288 8.26155 26.9827 8.22736L26.3535 8.1652V6.42451V4.68382L27.5298 4.68175C28.8916 4.67938 29.3746 4.54081 29.932 3.99276C30.2522 3.67793 30.5103 3.14329 30.5103 2.79465C30.5103 2.15525 29.8861 1.37247 29.1447 1.08163C28.7425 0.923888 28.3244 0.909719 24.1103 0.911231C20.2496 0.912648 19.4535 0.93579 19.1325 1.05594ZM26.1116 11.9627C31.9508 12.5127 37.051 15.1611 40.2678 19.3138C44.706 25.0435 44.7054 32.3336 40.266 38.0363C35.8092 43.7616 27.8397 46.5502 20.0618 45.1061C17.6673 44.6616 14.8112 43.5809 12.9043 42.3979C7.6927 39.1648 4.68811 34.147 4.68811 28.6764C4.68811 24.1189 6.61841 20.1103 10.3752 16.866C12.1455 15.3371 13.3977 14.5481 15.4661 13.6583C18.8639 12.1965 22.4793 11.6207 26.1116 11.9627ZM23.4602 15.782C22.8433 15.9718 22.5132 16.2118 22.2271 16.6788L21.9766 17.0877V23.1219C21.9766 28.8676 21.9866 29.173 22.1849 29.5067C22.448 29.9498 22.7992 30.2333 23.3151 30.4193C23.9225 30.6385 33.4907 30.638 34.0985 30.4189C34.9762 30.1023 35.4708 29.4744 35.4708 28.6764C35.4708 28.1003 35.2851 27.72 34.816 27.3353C34.1687 26.8045 34.0172 26.7872 30.0226 26.7872H26.3535V22.1533C26.3535 18.9339 26.3145 17.3857 26.2257 17.0815C26.0528 16.4885 25.3718 15.9006 24.6849 15.7514C24.0599 15.6155 23.9966 15.6171 23.4602 15.782Z" fill="white"/>
</svg>
