<svg width="52" height="41" viewBox="0 0 52 41" fill="none" xmlns="http://www.w3.org/2000/svg">
<path fill-rule="evenodd" clip-rule="evenodd" d="M24.357 0.612726C22.5426 1.10388 7.24803 5.57757 6.89536 5.72027C5.68785 6.20893 4.9222 7.44599 5.16619 8.51403C5.22082 8.75309 5.41958 9.27878 5.60776 9.68218C5.79604 10.0856 5.95005 10.4421 5.95005 10.4744C5.95005 10.5066 5.6572 10.5771 5.29915 10.631C3.99637 10.8273 2.55965 11.6066 1.8317 12.5121C1.65732 12.7289 1.40021 13.1411 1.2602 13.4282L1.00564 13.9501L0.979201 25.2387C0.953353 36.29 0.956877 36.5403 1.1478 37.1428C1.40393 37.9513 1.8269 38.531 2.61419 39.1526C3.35546 39.7378 4.23439 40.1183 5.23659 40.2878C6.23262 40.4563 42.873 40.4563 43.869 40.2878C45.3075 40.0445 46.73 39.2159 47.4475 38.2033C48.0767 37.3152 48.1489 36.8686 48.1489 33.8651V31.1816L48.3692 31.1808C48.7564 31.1795 49.5961 30.812 50.0623 30.4399C50.3109 30.2415 50.632 29.8789 50.7758 29.6339L51.0372 29.1888V25.3987V21.6085L50.7826 21.1751C50.3296 20.4044 49.59 19.8874 48.6105 19.6568L48.1979 19.5597L48.1458 16.7549C48.0942 13.9789 48.0911 13.9447 47.8423 13.4282C47.1255 11.9403 45.5417 10.8723 43.6726 10.6164L42.9726 10.5206L42.9417 8.75582L42.9108 6.99094L42.5889 6.46962C42.233 5.89298 41.6618 5.43878 40.9248 5.14636L40.463 4.96318L35.2763 4.92411L30.0896 4.88503L29.4408 3.45767C28.6686 1.75844 28.5483 1.56698 27.9967 1.15937C27.4094 0.725258 26.6627 0.469091 25.854 0.424313C25.3002 0.393601 25.0502 0.425095 24.357 0.612726ZM25.8952 2.7985C26.0332 2.86852 26.1947 3.164 26.6465 4.17288L26.9736 4.9034L26.1657 4.94364C25.4994 4.97686 25.2525 5.02867 24.7576 5.2392C24.0389 5.54491 23.5443 5.96174 23.1953 6.55582C22.944 6.98375 22.9365 7.04065 22.9062 8.77286L22.8751 10.5507L16.0036 10.5503L9.1321 10.5498L8.56892 9.32481C8.06802 8.23513 8.02054 8.08196 8.1392 7.93817C8.2375 7.81899 10.5342 7.1166 16.8778 5.26577C21.6106 3.88491 25.549 2.7513 25.6298 2.74669C25.7106 2.74216 25.83 2.76545 25.8952 2.7985ZM39.8686 7.39129C39.9979 7.49452 40.0224 7.75632 40.0224 9.03238V10.5507H32.924H25.8256V9.03238C25.8256 7.75632 25.8502 7.49452 25.9794 7.39129C26.1164 7.28204 26.8812 7.26852 32.924 7.26852C38.9669 7.26852 39.7317 7.28204 39.8686 7.39129ZM43.5719 13.0066C44.1134 13.1609 44.5846 13.4779 44.8913 13.8942L45.1627 14.2627L45.192 16.8947L45.2212 19.5268L41.8141 19.5528L38.4069 19.5788L37.6237 19.7975C35.14 20.4912 33.3856 21.9623 32.7147 23.9139C32.4965 24.5489 32.4714 26.1022 32.6695 26.7215C33.211 28.4152 34.6511 29.8592 36.5337 30.5962C38.0566 31.1923 38.1746 31.2065 41.9072 31.2406L45.2116 31.2708V33.8302C45.2116 36.7113 45.1785 36.8876 44.5385 37.4139C44.3387 37.5783 44.0008 37.7818 43.7877 37.8661C43.4069 38.0169 43.0823 38.0194 24.5528 38.0194C6.02329 38.0194 5.69872 38.0169 5.31785 37.8661C5.1048 37.7818 4.76603 37.5775 4.56503 37.4122C3.84461 36.8197 3.88838 37.6361 3.91706 25.3167L3.94291 14.2627L4.21432 13.8942C4.52097 13.4779 4.99221 13.1609 5.53374 13.0066C6.07909 12.8513 43.0265 12.8513 43.5719 13.0066ZM47.9951 22.0048C48.13 22.1126 48.1489 22.5274 48.1489 25.3786C48.1489 28.2939 48.1322 28.6442 47.9869 28.7724C47.8346 28.9066 47.5687 28.9153 43.6015 28.9153C39.0301 28.9153 38.7886 28.8972 37.7526 28.4782C36.7136 28.058 35.7845 27.0707 35.5309 26.1177C35.1423 24.6569 35.9718 23.1473 37.5887 22.3734C38.5601 21.9084 38.7498 21.8928 43.5158 21.8872C47.323 21.8827 47.8596 21.8967 47.9951 22.0048ZM39.1626 24.3564C38.106 24.7721 38.1224 26.002 39.1902 26.4146C39.4127 26.5005 39.6991 26.5709 39.8266 26.5709C40.2632 26.5709 40.856 26.2746 41.0931 25.938C41.7879 24.9513 40.4457 23.8517 39.1626 24.3564Z" fill="white"/>
</svg>
